<svg width="18" height="18" viewBox="0 0 18 18" fill="none" xmlns="http://www.w3.org/2000/svg">
<path d="M18 13.5C18 14.0304 17.7893 14.5391 17.4142 14.9142C17.0391 15.2893 16.5304 15.5 16 15.5H2C1.46957 15.5 0.960859 15.2893 0.585786 14.9142C0.210714 14.5391 0 14.0304 0 13.5V4.5C0 3.96957 0.210714 3.46086 0.585786 3.08579C0.960859 2.71071 1.46957 2.5 2 2.5H16C16.5304 2.5 17.0391 2.71071 17.4142 3.08579C17.7893 3.46086 18 3.96957 18 4.5V13.5Z" fill="#EEEEEE"/>
<path d="M10.7205 6.5425C10.0687 6.08622 9.2624 5.90754 8.47888 6.04575C7.69536 6.18396 6.99883 6.62775 6.54251 7.2795C6.32704 7.6057 6.24737 8.0031 6.32048 8.38714C6.39359 8.77118 6.6137 9.11153 6.93395 9.33574C7.2542 9.55995 7.64931 9.65032 8.03519 9.58761C8.42106 9.52491 8.76723 9.31408 9.00001 9C9.11301 8.83864 9.25669 8.70112 9.42284 8.59528C9.58899 8.48945 9.77436 8.41737 9.96837 8.38318C10.1624 8.34898 10.3612 8.35334 10.5535 8.39599C10.7459 8.43864 10.9279 8.51875 11.0893 8.63175C11.2506 8.74475 11.3881 8.88843 11.494 9.05458C11.5998 9.22073 11.6719 9.40611 11.7061 9.60011C11.7403 9.79411 11.7359 9.99295 11.6933 10.1853C11.6506 10.3776 11.5705 10.5596 11.4575 10.721C11.6835 10.3983 11.8437 10.0342 11.929 9.64948C12.0143 9.26481 12.0229 8.86711 11.9545 8.4791C11.8861 8.09108 11.7419 7.72034 11.5301 7.38806C11.3184 7.05577 11.0433 6.76845 10.7205 6.5425Z" fill="#C60C30"/>
<path d="M11.089 8.63199C10.7632 8.4038 10.36 8.31438 9.96829 8.38339C9.57654 8.4524 9.22824 8.6742 9 8.99999C8.76779 9.31572 8.42126 9.52806 8.03452 9.5916C7.64779 9.65515 7.25153 9.56486 6.9305 9.34004C6.60947 9.11522 6.38914 8.77372 6.31664 8.38856C6.24413 8.0034 6.3252 7.60516 6.5425 7.27899C6.30991 7.60138 6.1437 7.96679 6.05356 8.35397C5.96341 8.74115 5.95111 9.14239 6.01738 9.53436C6.08365 9.92634 6.22716 10.3012 6.43958 10.6373C6.652 10.9733 6.92908 11.2638 7.25473 11.4918C7.58038 11.7198 7.9481 11.8808 8.33652 11.9654C8.72494 12.0501 9.12631 12.0567 9.51731 11.9849C9.90831 11.9131 10.2811 11.7643 10.6141 11.5472C10.9471 11.33 11.2336 11.0488 11.457 10.72C11.57 10.5588 11.6502 10.3768 11.6928 10.1846C11.7355 9.99239 11.7399 9.79364 11.7057 9.59973C11.6715 9.40581 11.5995 9.22053 11.4937 9.05448C11.3878 8.88843 11.2503 8.74487 11.089 8.63199Z" fill="#003478"/>
<path d="M12.167 12.786L13.131 11.637L13.514 11.9585L12.55 13.1075L12.167 12.786ZM13.452 11.2545L14.416 10.106L14.799 10.4275L13.835 11.576L13.452 11.2545ZM12.933 13.43L13.897 12.2815L14.28 12.603L13.316 13.7515L12.933 13.43ZM14.219 11.897L15.184 10.7485L15.567 11.0705L14.602 12.2185L14.219 11.897ZM13.6985 14.073L14.6635 12.9245L15.046 13.246L14.0815 14.3945L13.6985 14.073ZM14.984 12.5405L15.9475 11.3905L16.331 11.712L15.3675 12.862L14.984 12.5405ZM14.986 5.45951L15.369 5.13801L16.334 6.28751L15.9505 6.60901L14.986 5.45951ZM13.7 3.92651L14.083 3.60501L15.047 4.75451L14.6635 5.07551L13.7 3.92651ZM12.9335 4.57051L13.3165 4.24901L15.5665 6.93001L15.1835 7.25151L12.9335 4.57051ZM12.1675 5.21251L12.551 4.89101L13.5145 6.04001L13.1315 6.36101L12.1675 5.21251ZM13.4525 6.74501L13.8355 6.42351L14.8005 7.57201L14.418 7.89351L13.4525 6.74501ZM3.20001 10.427L3.58301 10.1055L5.83251 12.787L5.44901 13.1085L3.20001 10.427ZM2.43501 11.07L2.81751 10.749L3.78201 11.898L3.39851 12.2195L2.43501 11.07ZM3.71851 12.603L4.10151 12.2815L5.06651 13.43L4.68351 13.7515L3.71851 12.603ZM1.66801 11.7125L2.05101 11.391L4.30101 14.072L3.91751 14.3935L1.66801 11.7125ZM1.66751 6.28651L3.91651 3.60551L4.30001 3.92651L2.05001 6.60801L1.66751 6.28651ZM2.43351 6.93001L4.68351 4.24851L5.06651 4.57001L2.81651 7.25101L2.43351 6.93001ZM3.20001 7.57251L5.45001 4.89101L5.83301 5.21251L3.58301 7.89401L3.20001 7.57251Z" fill="#292F33"/>
</svg>
